<?xml version="1.0" encoding="utf-8"?>
<!-- Generator: Adobe Illustrator 19.2.1, SVG Export Plug-In . SVG Version: 6.00 Build 0)  -->
<svg version="1.1" xmlns="http://www.w3.org/2000/svg" xmlns:xlink="http://www.w3.org/1999/xlink" x="0px" y="0px"
	 viewBox="0 0 652 652" style="enable-background:new 0 0 652 652;" xml:space="preserve">
<style type="text/css">
	.st0{display:none;}
	.st1{display:inline;}
	.st2{fill:#0C0407;}
	.st3{fill:#00A651;}
</style>
<g class="st0">
	<g class="st1">
		<path class="st2" d="M240,670.9l1.6-0.1c0.1,0.6,0.3,1.2,0.5,1.6c0.3,0.4,0.7,0.7,1.3,1c0.6,0.3,1.2,0.4,2,0.4
			c0.7,0,1.2-0.1,1.7-0.3s0.9-0.5,1.1-0.8s0.4-0.7,0.4-1.1c0-0.4-0.1-0.8-0.4-1.1s-0.6-0.6-1.2-0.8c-0.3-0.1-1.1-0.3-2.3-0.6
			s-2-0.6-2.5-0.8c-0.6-0.3-1.1-0.7-1.4-1.2c-0.3-0.5-0.5-1-0.5-1.6c0-0.7,0.2-1.3,0.6-1.8s0.9-1,1.6-1.3s1.5-0.4,2.4-0.4
			c1,0,1.8,0.2,2.5,0.5c0.7,0.3,1.3,0.8,1.7,1.4s0.6,1.3,0.6,2l-1.6,0.1c-0.1-0.8-0.4-1.4-0.9-1.8c-0.5-0.4-1.3-0.6-2.2-0.6
			c-1,0-1.8,0.2-2.3,0.6c-0.5,0.4-0.7,0.8-0.7,1.4c0,0.5,0.2,0.8,0.5,1.1c0.3,0.3,1.2,0.6,2.6,0.9c1.4,0.3,2.3,0.6,2.9,0.8
			c0.8,0.3,1.3,0.8,1.7,1.3s0.5,1.1,0.5,1.8c0,0.7-0.2,1.3-0.6,1.9c-0.4,0.6-1,1.1-1.7,1.4c-0.7,0.3-1.6,0.5-2.5,0.5
			c-1.2,0-2.1-0.2-2.9-0.5c-0.8-0.3-1.4-0.9-1.9-1.5C240.3,672.6,240,671.8,240,670.9z"/>
		<path class="st2" d="M258.8,672.1l1.6,0.2c-0.3,1-0.7,1.7-1.4,2.2s-1.6,0.8-2.7,0.8c-1.4,0-2.4-0.4-3.2-1.3
			c-0.8-0.8-1.2-2-1.2-3.5c0-1.6,0.4-2.8,1.2-3.7s1.9-1.3,3.1-1.3c1.2,0,2.3,0.4,3.1,1.3s1.2,2,1.2,3.6c0,0.1,0,0.2,0,0.4h-7
			c0.1,1,0.3,1.8,0.9,2.4s1.2,0.8,2,0.8c0.6,0,1.1-0.2,1.5-0.5S258.6,672.7,258.8,672.1z M253.6,669.5h5.2c-0.1-0.8-0.3-1.4-0.6-1.8
			c-0.5-0.6-1.2-0.9-2-0.9c-0.7,0-1.3,0.2-1.8,0.7S253.6,668.7,253.6,669.5z"/>
		<path class="st2" d="M268.8,672.1l1.6,0.2c-0.3,1-0.7,1.7-1.4,2.2s-1.6,0.8-2.7,0.8c-1.4,0-2.4-0.4-3.2-1.3
			c-0.8-0.8-1.2-2-1.2-3.5c0-1.6,0.4-2.8,1.2-3.7s1.9-1.3,3.1-1.3c1.2,0,2.3,0.4,3.1,1.3s1.2,2,1.2,3.6c0,0.1,0,0.2,0,0.4h-7
			c0.1,1,0.3,1.8,0.9,2.4s1.2,0.8,2,0.8c0.6,0,1.1-0.2,1.5-0.5S268.6,672.7,268.8,672.1z M263.6,669.5h5.2c-0.1-0.8-0.3-1.4-0.6-1.8
			c-0.5-0.6-1.2-0.9-2-0.9c-0.7,0-1.3,0.2-1.8,0.7S263.7,668.7,263.6,669.5z"/>
		<path class="st2" d="M272.4,675.1v-12.9h1.6v7.3l3.7-3.8h2l-3.6,3.5l3.9,5.9h-2l-3.1-4.8l-1.1,1.1v3.7H272.4z"/>
		<path class="st2" d="M285.3,675.1l-5-12.9h1.8l3.3,9.4c0.3,0.8,0.5,1.5,0.7,2.1c0.2-0.7,0.4-1.4,0.7-2.1l3.5-9.4h1.7l-5,12.9
			H285.3z"/>
		<path class="st2" d="M298.8,672.1l1.6,0.2c-0.3,1-0.7,1.7-1.4,2.2s-1.6,0.8-2.7,0.8c-1.4,0-2.4-0.4-3.2-1.3
			c-0.8-0.8-1.2-2-1.2-3.5c0-1.6,0.4-2.8,1.2-3.7s1.9-1.3,3.1-1.3c1.2,0,2.3,0.4,3.1,1.3s1.2,2,1.2,3.6c0,0.1,0,0.2,0,0.4h-7
			c0.1,1,0.3,1.8,0.9,2.4s1.2,0.8,2,0.8c0.6,0,1.1-0.2,1.5-0.5S298.6,672.7,298.8,672.1z M293.6,669.5h5.2c-0.1-0.8-0.3-1.4-0.6-1.8
			c-0.5-0.6-1.2-0.9-2-0.9c-0.7,0-1.3,0.2-1.8,0.7S293.7,668.7,293.6,669.5z"/>
		<path class="st2" d="M308.5,671.7l1.6,0.2c-0.2,1.1-0.6,1.9-1.3,2.5c-0.7,0.6-1.6,0.9-2.6,0.9c-1.3,0-2.3-0.4-3.1-1.3
			c-0.8-0.8-1.2-2-1.2-3.6c0-1,0.2-1.9,0.5-2.6s0.8-1.3,1.5-1.7c0.7-0.4,1.4-0.6,2.2-0.6c1,0,1.8,0.3,2.5,0.8s1.1,1.2,1.2,2.2
			l-1.5,0.2c-0.1-0.6-0.4-1.1-0.8-1.4s-0.8-0.5-1.3-0.5c-0.8,0-1.4,0.3-1.9,0.9c-0.5,0.6-0.7,1.5-0.7,2.7c0,1.3,0.2,2.2,0.7,2.7
			s1.1,0.9,1.9,0.9c0.6,0,1.1-0.2,1.6-0.6S308.4,672.4,308.5,671.7z"/>
		<path class="st2" d="M314.9,673.7l0.2,1.4c-0.4,0.1-0.8,0.1-1.2,0.1c-0.6,0-1-0.1-1.3-0.3s-0.5-0.4-0.7-0.7s-0.2-0.9-0.2-1.9V667
			h-1.2v-1.2h1.2v-2.3l1.6-0.9v3.3h1.6v1.2h-1.6v5.5c0,0.5,0,0.7,0.1,0.9s0.1,0.2,0.3,0.3c0.1,0.1,0.3,0.1,0.5,0.1
			C314.4,673.7,314.6,673.7,314.9,673.7z"/>
		<path class="st2" d="M315.9,670.4c0-1.7,0.5-3,1.4-3.8c0.8-0.7,1.8-1,2.9-1c1.3,0,2.3,0.4,3.1,1.3s1.2,2,1.2,3.5
			c0,1.2-0.2,2.1-0.5,2.8c-0.4,0.7-0.9,1.2-1.6,1.6s-1.4,0.6-2.3,0.6c-1.3,0-2.4-0.4-3.2-1.3C316.3,673.2,315.9,672,315.9,670.4z
			 M317.5,670.4c0,1.2,0.3,2.1,0.8,2.7c0.5,0.6,1.2,0.9,2,0.9c0.8,0,1.4-0.3,2-0.9s0.8-1.5,0.8-2.7c0-1.2-0.3-2-0.8-2.6
			c-0.5-0.6-1.2-0.9-2-0.9c-0.8,0-1.4,0.3-2,0.9S317.5,669.2,317.5,670.4z"/>
		<path class="st2" d="M326.4,675.1v-9.3h1.4v1.4c0.4-0.7,0.7-1.1,1-1.3c0.3-0.2,0.6-0.3,1-0.3c0.5,0,1.1,0.2,1.6,0.5l-0.5,1.5
			c-0.4-0.2-0.8-0.3-1.2-0.3c-0.3,0-0.7,0.1-0.9,0.3s-0.5,0.5-0.6,0.9c-0.2,0.6-0.3,1.2-0.3,1.8v4.9H326.4z"/>
		<path class="st2" d="M332.6,675.1v-12.9h1.7v11.4h6.3v1.5H332.6z"/>
		<path class="st2" d="M341.9,670.4c0-1.7,0.5-3,1.4-3.8c0.8-0.7,1.8-1,2.9-1c1.3,0,2.3,0.4,3.1,1.3s1.2,2,1.2,3.5
			c0,1.2-0.2,2.1-0.5,2.8c-0.4,0.7-0.9,1.2-1.6,1.6s-1.4,0.6-2.3,0.6c-1.3,0-2.4-0.4-3.2-1.3C342.3,673.2,341.9,672,341.9,670.4z
			 M343.5,670.4c0,1.2,0.3,2.1,0.8,2.7c0.5,0.6,1.2,0.9,2,0.9c0.8,0,1.4-0.3,2-0.9s0.8-1.5,0.8-2.7c0-1.2-0.3-2-0.8-2.6
			c-0.5-0.6-1.2-0.9-2-0.9c-0.8,0-1.4,0.3-2,0.9S343.5,669.2,343.5,670.4z"/>
		<path class="st2" d="M352.2,675.8l1.5,0.2c0.1,0.5,0.2,0.8,0.5,1c0.4,0.3,0.9,0.4,1.6,0.4c0.7,0,1.3-0.1,1.7-0.4s0.7-0.7,0.8-1.2
			c0.1-0.3,0.1-1,0.1-2c-0.7,0.8-1.6,1.2-2.6,1.2c-1.3,0-2.3-0.5-3-1.4s-1.1-2-1.1-3.3c0-0.9,0.2-1.7,0.5-2.5
			c0.3-0.8,0.8-1.3,1.4-1.7s1.3-0.6,2.2-0.6c1.1,0,2,0.4,2.7,1.3v-1.1h1.5v8.1c0,1.5-0.1,2.5-0.4,3.1c-0.3,0.6-0.8,1.1-1.4,1.4
			c-0.6,0.4-1.4,0.5-2.4,0.5c-1.1,0-2-0.3-2.7-0.8C352.5,677.6,352.2,676.9,352.2,675.8z M353.5,670.2c0,1.2,0.2,2.1,0.7,2.7
			s1.1,0.8,1.8,0.8c0.7,0,1.3-0.3,1.8-0.8s0.7-1.4,0.7-2.6c0-1.1-0.3-2-0.8-2.6c-0.5-0.6-1.1-0.9-1.8-0.9c-0.7,0-1.3,0.3-1.8,0.9
			C353.7,668.3,353.5,669.1,353.5,670.2z"/>
		<path class="st2" d="M361.9,670.4c0-1.7,0.5-3,1.4-3.8c0.8-0.7,1.8-1,2.9-1c1.3,0,2.3,0.4,3.1,1.3s1.2,2,1.2,3.5
			c0,1.2-0.2,2.1-0.5,2.8c-0.4,0.7-0.9,1.2-1.6,1.6s-1.4,0.6-2.3,0.6c-1.3,0-2.4-0.4-3.2-1.3C362.3,673.2,361.9,672,361.9,670.4z
			 M363.5,670.4c0,1.2,0.3,2.1,0.8,2.7c0.5,0.6,1.2,0.9,2,0.9c0.8,0,1.4-0.3,2-0.9s0.8-1.5,0.8-2.7c0-1.2-0.3-2-0.8-2.6
			c-0.5-0.6-1.2-0.9-2-0.9c-0.8,0-1.4,0.3-2,0.9S363.5,669.2,363.5,670.4z"/>
		<path class="st2" d="M372.9,675.1v-1.8h1.8v1.8H372.9z"/>
		<path class="st2" d="M386.9,670.6l1.7,0.4c-0.4,1.4-1,2.5-1.9,3.2s-2.1,1.1-3.4,1.1c-1.4,0-2.5-0.3-3.4-0.8
			c-0.9-0.6-1.5-1.4-2-2.5c-0.5-1.1-0.7-2.2-0.7-3.5c0-1.3,0.3-2.5,0.8-3.5c0.5-1,1.2-1.8,2.2-2.3c0.9-0.5,2-0.8,3.1-0.8
			c1.3,0,2.4,0.3,3.3,1s1.5,1.6,1.8,2.8l-1.7,0.4c-0.3-0.9-0.7-1.6-1.3-2s-1.3-0.6-2.1-0.6c-1,0-1.8,0.2-2.5,0.7
			c-0.7,0.5-1.1,1.1-1.4,1.9c-0.3,0.8-0.4,1.6-0.4,2.5c0,1.1,0.2,2.1,0.5,2.9c0.3,0.8,0.8,1.4,1.5,1.8s1.4,0.6,2.2,0.6
			c1,0,1.8-0.3,2.4-0.8S386.7,671.6,386.9,670.6z"/>
		<path class="st2" d="M389.9,670.4c0-1.7,0.5-3,1.4-3.8c0.8-0.7,1.8-1,2.9-1c1.3,0,2.3,0.4,3.1,1.3s1.2,2,1.2,3.5
			c0,1.2-0.2,2.1-0.5,2.8c-0.4,0.7-0.9,1.2-1.6,1.6s-1.4,0.6-2.3,0.6c-1.3,0-2.4-0.4-3.2-1.3C390.3,673.2,389.9,672,389.9,670.4z
			 M391.5,670.4c0,1.2,0.3,2.1,0.8,2.7c0.5,0.6,1.2,0.9,2,0.9c0.8,0,1.4-0.3,2-0.9s0.8-1.5,0.8-2.7c0-1.2-0.3-2-0.8-2.6
			c-0.5-0.6-1.2-0.9-2-0.9c-0.8,0-1.4,0.3-2,0.9S391.5,669.2,391.5,670.4z"/>
		<path class="st2" d="M400.5,675.1v-9.3h1.4v1.3c0.3-0.5,0.7-0.8,1.2-1.1s1-0.4,1.7-0.4c0.7,0,1.3,0.1,1.7,0.4
			c0.4,0.3,0.8,0.7,0.9,1.2c0.7-1.1,1.7-1.6,2.9-1.6c0.9,0,1.6,0.3,2.1,0.8s0.7,1.3,0.7,2.4v6.4h-1.6v-5.9c0-0.6-0.1-1.1-0.2-1.4
			c-0.1-0.3-0.3-0.5-0.6-0.7s-0.6-0.3-0.9-0.3c-0.7,0-1.2,0.2-1.6,0.7c-0.4,0.4-0.7,1.1-0.7,2.1v5.4h-1.6V669c0-0.7-0.1-1.2-0.4-1.6
			s-0.7-0.5-1.3-0.5c-0.4,0-0.9,0.1-1.2,0.4c-0.4,0.2-0.7,0.6-0.8,1s-0.3,1.1-0.3,2v4.8H400.5z"/>
	</g>
</g>
<g>
	<g>
		<path class="st3" d="M85.9,261.7c-14.3-6.3-22.8-8.8-31.2-8.8c-8.9,0-14.5,3.2-14.5,8.1c0,14.8,50.2,10.6,50.2,44.9
			c0,18.9-15.8,29.8-37.8,29.8c-17.3,0-25.8-4.5-35.5-9.5V305c14.1,9.4,22.8,12.7,33.6,12.7c9.5,0,14.5-3.3,14.5-9.1
			c0-16.1-50.2-10.2-50.2-45.5c0-17,14.7-28.2,37.6-28.2c11,0,21,2.3,33.4,7.6V261.7z"/>
		<path class="st3" d="M156.1,331.2c-8.4,3-15.4,4.5-22.5,4.5c-23.4,0-38.5-13.6-38.5-34.3c0-20.3,15.7-34.7,37.6-34.7
			c6.8,0,15.4,1.7,22.4,4.3v15.6c-5.5-2.9-11.8-4.5-17-4.5c-12.5,0-20.6,7.5-20.6,19.2c0,11.8,7.9,19.6,19.9,19.6
			c5,0,9.5-1.2,18.8-4.6V331.2z"/>
		<path class="st3" d="M351.4,266.6c-20.5,0-35.1,14.5-35.1,34.9c0,20.5,15.2,34.1,38.6,34.1c5.2,0,17.7,0,29.7-8.8v-13
			c-9.8,7-16.3,9.4-24.6,9.4c-13.2,0-21.2-6.8-22-18.5h47.8C386.7,280.4,370.8,266.6,351.4,266.6 M338.4,293.7
			c0.9-9.2,6.2-14.6,14.4-14.6c8.1,0,13.6,5.5,14.4,14.6H338.4z"/>
		<rect x="393.8" y="267.8" class="st3" width="20.9" height="66.6"/>
		<path class="st3" d="M472.8,236.1v34.7c-5.6-2.7-11.3-4.2-17.3-4.2c-19,0-32.2,14.1-32.2,34.5c0,19.9,13.2,34.6,31.1,34.6
			c7.1,0,12.6-1.9,18.5-6.6v5.4h20.9v-98.3H472.8z M472.8,316.2c-4.3,3.9-8,5.5-12.4,5.5c-9.8,0-16.1-8.1-16.1-20.2
			c0-13.3,6.2-21,16.7-21c3.8,0,8.7,1.7,11.7,3.9V316.2z"/>
		<path class="st3" d="M537.6,266.6c-20.5,0-35.1,14.5-35.1,34.9c0,20.5,15.2,34.1,38.6,34.1c5.2,0,17.7,0,29.7-8.8v-13
			c-9.8,7-16.3,9.4-24.7,9.4c-13.1,0-21.2-6.8-21.9-18.5h47.8C572.9,280.4,557,266.6,537.6,266.6 M524.6,293.7
			c0.9-9.2,6.2-14.6,14.4-14.6c8.1,0,13.6,5.5,14.5,14.6H524.6z"/>
	</g>
	<g>
		<path class="st3" d="M603.2,286.9h0.3c6.2-13.9,13.1-20.4,21.2-20.4c4.2,0,7.8,1.6,13.8,6.1l-5.8,18.5c-5.5-3.5-9.1-4.9-12.4-4.9
			c-7.7,0-12.6,7.2-17.2,19.4v28.7h-20.9v-66.6h20.9V286.9z"/>
		<path class="st3" d="M415.7,239.8c2,5.2-1.6,12.4-7.9,16.1c-6.3,3.7-13,2.5-14.9-2.6c-2-5.2,1.5-12.4,7.8-16.1
			C407,233.5,413.7,234.7,415.7,239.8"/>
	</g>
	<g>
		<path class="st3" d="M231.4,292.1c0-18-12.3-25.4-24.4-25.4c-8.2,0-15,3.5-21,11.1h-0.3v-41.7h-20.9v98.2h20.9v-42.2
			c4.9-7.1,9.1-10.1,14-10.1c6.5,0,10.8,4.6,10.8,14.6v23.4c7-3.6,14.1-5.8,20.9-6.6V292.1z"/>
		<path class="st3" d="M283.8,266.6c-8.5,0-15,3.2-21.7,10.8v-9.5h-20.9v45.3c7.2,0.7,16.5,4,20.9,9.5v-31.1c5.5-8.2,9.4-11,14.6-11
			c5.9,0,10.4,3.9,10.4,13.3v40.4h20.9v-42.2C308.1,272.5,294.2,266.6,283.8,266.6"/>
		<polygon class="st3" points="319.6,353.4 295.3,353.4 295.3,370.6 318.7,370.6 318.7,378 295.3,378 295.3,395.8 320.3,395.8 
			320.3,403.2 287.2,403.2 287.2,346 319.6,346 		"/>
		<rect x="339.4" y="346" class="st3" width="7.4" height="57.3"/>
		<path class="st3" d="M373.4,385.5h26.5c0-14-6.4-20.7-16.4-20.7c-10.4,0-17.6,7.7-17.6,19.1c0,10.5,6.5,20.1,18.2,20.1
			c6.4,0,10.5-1.4,15.1-4.5v-7.2c-4.4,2.9-8.7,4.6-13.2,4.6C378.9,396.8,374.6,393,373.4,385.5 M383.7,371.2c5.3,0,8.5,3.6,8.8,9.3
			h-18.9C374.6,374.6,378,371.2,383.7,371.2"/>
		<path class="st3" d="M448.5,375.4c-4.3-2.9-7.1-3.8-10.4-3.8c-6.8,0-11.5,5.2-11.5,12.9c0,7.8,5,12.5,12.8,12.5
			c3.2,0,6.2-0.8,10-2.5v7.3c-2.5,1.2-7.3,2.2-11.2,2.2c-11.3,0-19.1-7.7-19.1-18.8c0-12.5,7.1-20.4,18.6-20.4c4.4,0,7.3,1,10.9,2.6
			V375.4z"/>
		<path class="st3" d="M482.4,365.5h11.9v6.7h-11.9v19.4c0,4.4,3.2,5.7,5.4,5.7c2.7,0,5.5-0.9,8.5-2.8v7c-2.6,1.4-6.6,2.5-9.1,2.5
			c-8.1,0-12.2-5-12.2-11.8v-19.9h-6.6v-0.8l14-13.7V365.5z"/>
		<path class="st3" d="M522.8,365.5v8.7h0.1c3.8-6.7,7.4-9.5,10.9-9.5c3,0,5.9,1.4,9,4.4l-3.9,6.6c-2.3-2.2-5.2-3.8-7-3.8
			c-5.1,0-9.1,5.2-9.1,11.7v19.7h-7.4v-37.8H522.8z"/>
		<path class="st3" d="M619.1,375.4c-4.3-2.9-7.2-3.8-10.4-3.8c-6.8,0-11.5,5.2-11.5,12.9c0,7.8,5,12.5,12.7,12.5
			c3.2,0,6.2-0.8,10-2.5v7.3c-2.6,1.2-7.3,2.2-11.3,2.2c-11.2,0-19.1-7.7-19.1-18.8c0-12.5,7.2-20.4,18.6-20.4c4.4,0,7.3,1,10.9,2.6
			V375.4z"/>
		<rect x="562.6" y="365.5" class="st3" width="7.4" height="37.8"/>
		<path class="st3" d="M570.2,351.9c0.7,1.8-0.5,4.4-2.8,5.7c-2.3,1.3-4.6,0.9-5.3-0.9c-0.7-1.8,0.6-4.4,2.8-5.7
			C567.2,349.7,569.6,350.1,570.2,351.9"/>
		<path class="st3" d="M241.8,370.4l2.3-8.2h20.5c2.5-11.9,0.5-22.9-6.7-30.1c-14.6-14.6-45.1-9.6-67.8,12.1
			c-3.5,3.4-6.5,7-9.3,10.8h12.4l-2.9,8.2h-14.8c-1.4,2.6-2.7,5.2-3.8,7.8h17.5l-2.8,8.2h-17.2c-2.9,12.5-1.1,24.2,6.3,31.6
			c14.4,14.4,44.8,9.3,67.5-12.4c4-3.8,7.3-7.9,10.2-12.1h-15.9l2.4-8.2h18.6c1.4-2.6,2.6-5.2,3.6-7.8H241.8z M237.3,355
			c-1.3,0-1.9,0.2-2.4,0.8c-0.2,0.2-0.3,0.5-0.4,0.9l-6.7,25.3c-1.6,8.9-12.5,17.7-26.7,17.7h-7.7h-12l3.4-13h12.7
			c1.3,0,2.3-0.5,3.2-1.4c0.3-0.4,0.7-0.9,0.8-1.5l5.3-22.1c1.6-8.9,10.9-18.7,25.1-18.7h20.2l-2.6,12H237.3z"/>
	</g>
</g>
</svg>
